<?xml version="1.0"?>
<svg version="1.1" xmlns="http://www.w3.org/2000/svg" width="400px" height="200px" style="border: dashed 2px #aaa"><path fill="#" d="M64.751953125,116.7890625l-1.44921875-4.7578125l-7.287109375,0l-1.44921875,4.7578125l-4.56640625,0l7.0546875-20.0703125l5.181640625,0l7.08203125,20.0703125l-4.56640625,0z M62.291015625,108.4765625q-2.009765625-6.466796875-2.2626953125-7.314453125t-0.3623046875-1.33984375q-0.451171875,1.75-2.583984375,8.654296875l5.208984375,0z M90.34255859375,106.603515625q0,4.935546875-2.8095703125,7.560546875t-8.1142578125,2.625l-5.66015625,0l0-19.98828125l6.275390625,0q4.89453125,0,7.6015625,2.583984375t2.70703125,7.21875z M85.94021484375,106.712890625q0-6.439453125-5.6875-6.439453125l-2.255859375,0l0,13.015625l1.818359375,0q6.125,0,6.125-6.576171875z M100.6480078125,105.673828125l1.3671875,0q2.009765625,0,2.966796875-0.669921875t0.95703125-2.10546875q0-1.421875-0.9775390625-2.0234375t-3.0283203125-0.6015625l-1.28515625,0l0,5.400390625z M100.6480078125,109.119140625l0,7.669921875l-4.23828125,0l0-19.98828125l5.82421875,0q4.07421875,0,6.029296875,1.4833984375t1.955078125,4.5048828125q0,1.763671875-0.970703125,3.1376953125t-2.748046875,2.1533203125q4.51171875,6.740234375,5.87890625,8.708984375l-4.703125,0l-4.771484375-7.669921875l-2.255859375,0z M134.96126953125,106.767578125q0,4.962890625-2.4609375,7.62890625t-7.0546875,2.666015625t-7.0546875-2.666015625t-2.4609375-7.65625t2.4677734375-7.6220703125t7.0751953125-2.6318359375t7.0478515625,2.65234375t2.4404296875,7.62890625z M120.37337890625,106.767578125q0,3.349609375,1.271484375,5.044921875t3.80078125,1.6953125q5.072265625,0,5.072265625-6.740234375q0-6.75390625-5.044921875-6.75390625q-2.529296875,0-3.814453125,1.7021484375t-1.28515625,5.0517578125z M158.760859375,116.7890625l-5.38671875,0l-8.6953125-15.12109375l-0.123046875,0q0.259765625,4.005859375,0.259765625,5.71484375l0,9.40625l-3.787109375,0l0-19.98828125l5.345703125,0l8.681640625,14.970703125l0.095703125,0q-0.205078125-3.896484375-0.205078125-5.509765625l0-9.4609375l3.814453125,0l0,19.98828125z M182.09560546875,116.7890625l-4.224609375,0l0-8.626953125l-7.916015625,0l0,8.626953125l-4.23828125,0l0-19.98828125l4.23828125,0l0,7.833984375l7.916015625,0l0-7.833984375l4.224609375,0l0,19.98828125z M207.2076953125,106.767578125q0,4.962890625-2.4609375,7.62890625t-7.0546875,2.666015625t-7.0546875-2.666015625t-2.4609375-7.65625t2.4677734375-7.6220703125t7.0751953125-2.6318359375t7.0478515625,2.65234375t2.4404296875,7.62890625z M192.6198046875,106.767578125q0,3.349609375,1.271484375,5.044921875t3.80078125,1.6953125q5.072265625,0,5.072265625-6.740234375q0-6.75390625-5.044921875-6.75390625q-2.529296875,0-3.814453125,1.7021484375t-1.28515625,5.0517578125z M221.73775390625,116.7890625l-4.8125-15.681640625l-0.123046875,0q0.259765625,4.78515625,0.259765625,6.384765625l0,9.296875l-3.787109375,0l0-19.98828125l5.76953125,0l4.73046875,15.28515625l0.08203125,0l5.017578125-15.28515625l5.76953125,0l0,19.98828125l-3.951171875,0l0-9.4609375q0-0.669921875,0.0205078125-1.544921875t0.1845703125-4.6484375l-0.123046875,0l-5.154296875,15.654296875l-3.8828125,0z M253.1115625,116.7890625l-11.51171875,0l0-19.98828125l11.51171875,0l0,3.47265625l-7.2734375,0l0,4.388671875l6.767578125,0l0,3.47265625l-6.767578125,0l0,5.154296875l7.2734375,0l0,3.5z M271.00490234375,111.23828125q0,2.70703125-1.9482421875,4.265625t-5.4208984375,1.55859375q-3.19921875,0-5.66015625-1.203125l0-3.9375q2.0234375,0.90234375,3.4248046875,1.271484375t2.5634765625,0.369140625q1.39453125,0,2.1396484375-0.533203125t0.7451171875-1.5859375q0-0.587890625-0.328125-1.0458984375t-0.9638671875-0.8818359375t-2.5908203125-1.353515625q-1.83203125-0.861328125-2.748046875-1.654296875t-1.462890625-1.845703125t-0.546875-2.4609375q0-2.65234375,1.7978515625-4.169921875t4.9697265625-1.517578125q1.55859375,0,2.9736328125,0.369140625t2.9599609375,1.0390625l-1.3671875,3.294921875q-1.599609375-0.65625-2.6455078125-0.916015625t-2.0576171875-0.259765625q-1.203125,0-1.845703125,0.560546875t-0.642578125,1.462890625q0,0.560546875,0.259765625,0.9775390625t0.8271484375,0.806640625t2.6865234375,1.4013671875q2.802734375,1.33984375,3.841796875,2.6865234375t1.0390625,3.3017578125z"/><path fill="#002f3d" d=""/></svg>
